<svg width="25" height="24" viewBox="0 0 25 24" fill="none" xmlns="http://www.w3.org/2000/svg">
<path d="M1.95801 1.95833H5.79134L8.35967 14.7904C8.44731 15.2316 8.68734 15.628 9.03774 15.91C9.38814 16.1921 9.82659 16.3419 10.2763 16.3333H19.5913C20.0411 16.3419 20.4795 16.1921 20.8299 15.91C21.1803 15.628 21.4204 15.2316 21.508 14.7904L23.0413 6.74999H6.74967M10.583 21.125C10.583 21.6543 10.1539 22.0833 9.62467 22.0833C9.0954 22.0833 8.66634 21.6543 8.66634 21.125C8.66634 20.5957 9.0954 20.1667 9.62467 20.1667C10.1539 20.1667 10.583 20.5957 10.583 21.125ZM21.1247 21.125C21.1247 21.6543 20.6956 22.0833 20.1663 22.0833C19.6371 22.0833 19.208 21.6543 19.208 21.125C19.208 20.5957 19.6371 20.1667 20.1663 20.1667C20.6956 20.1667 21.1247 20.5957 21.1247 21.125Z" stroke="#FBC332" stroke-width="2" stroke-linecap="round" stroke-linejoin="round"/>
</svg>
