<svg width="24" height="24" viewBox="0 0 24 24" fill="none" xmlns="http://www.w3.org/2000/svg">
<path d="M1 1H5L7.68 15.39C7.77144 15.8504 8.02191 16.264 8.38755 16.5583C8.75318 16.8526 9.2107 17.009 9.68 17H20.4C20.8693 17.009 21.3268 16.8526 21.6925 16.5583C22.0581 16.264 22.3086 15.8504 22.4 15.39L24 6H6M10 21C10 21.5523 9.55228 22 9 22C8.44772 22 8 21.5523 8 21C8 20.4477 8.44772 20 9 20C9.55228 20 10 20.4477 10 21ZM21 21C21 21.5523 20.5523 22 20 22C19.4477 22 19 21.5523 19 21C19 20.4477 19.4477 20 20 20C20.5523 20 21 20.4477 21 21Z" stroke="currentColor" strokeWidth="2" strokeLinecap="round" strokeLinejoin="round"/>
</svg>
